<svg xmlns="http://www.w3.org/2000/svg" xmlns:svg="http://www.w3.org/2000/svg" xmlns:xlink="http://www.w3.org/1999/xlink" id="svg2" width="16" height="16" version="1.1"><defs id="defs4"><linearGradient id="provider-bg-6"><stop style="stop-color:#85a2cd;stop-opacity:1" id="stop4923" offset="0"/><stop style="stop-color:#d3dce9;stop-opacity:1" id="stop4925" offset="1"/></linearGradient><linearGradient id="provider-stroke-7"><stop style="stop-color:#4e6b9b;stop-opacity:1" id="stop4915" offset="0"/><stop style="stop-color:#6783b1;stop-opacity:1" id="stop4917" offset="1"/></linearGradient><linearGradient id="linearGradient4919" x1="1.86" x2="1.86" y1="1051.589" y2="1046.849" gradientTransform="matrix(1.0234842,0,0,1.0234842,-17.402505,-25.185931)" gradientUnits="userSpaceOnUse" xlink:href="#provider-stroke-7"/><linearGradient id="linearGradient4927" x1="1.86" x2="1.86" y1="1051.589" y2="1046.849" gradientTransform="matrix(1.0234842,0,0,1.0234842,-17.402505,-25.185931)" gradientUnits="userSpaceOnUse" xlink:href="#provider-bg-6"/><linearGradient id="arrow-bg-3"><stop style="stop-color:#4e8fbd;stop-opacity:1" id="stop4791" offset="0"/><stop style="stop-color:#8dacc3;stop-opacity:1" id="stop4793" offset="1"/></linearGradient><linearGradient id="linearGradient3924" x1="-2.287" x2="-2.287" y1="1044.692" y2="1049.598" gradientTransform="matrix(0.72371262,0.72371262,0.72371262,-0.72371262,-745.18023,1799.8892)" gradientUnits="userSpaceOnUse" xlink:href="#arrow-bg-3"/></defs><metadata id="metadata7"/><g id="layer1" style="display:inline" transform="translate(0,-1036.3622)"><g id="provider" transform="translate(17.6875,0)"><title id="title3210">provider</title><path style="fill:url(#linearGradient4927);fill-opacity:1;stroke:url(#linearGradient4919);stroke-width:.71643895;stroke-linecap:butt;stroke-linejoin:miter;stroke-miterlimit:4;stroke-opacity:1;stroke-dasharray:none" id="path4143" d="m -17.306554,1043.8942 0,7.1004 7.132406,0 7.1324058,0 0,-7.1004 -3.0064848,0 0,2.015 0.9275325,0 0,3.0704 -5.0534535,0 -5.053453,0 0,-3.0704 0.927532,0 0,-2.015 z"/></g><path style="display:inline;fill:url(#linearGradient3924);fill-opacity:1;stroke:none" id="arrow" d="m 4.4413392,1046.1891 0.6556696,0.6556 6.2848652,-6.2848 1.311339,1.3113 0.335794,-3.5021 -3.5021958,0.3037 1.2313798,1.2315 z"><title id="title3208">arrow</title></path></g></svg>