<svg xmlns="http://www.w3.org/2000/svg" xmlns:svg="http://www.w3.org/2000/svg" xmlns:xlink="http://www.w3.org/1999/xlink" id="svg2" width="16" height="16" version="1.1"><defs id="defs4"><linearGradient id="linearGradient4839"><stop id="stop4841" offset="0" style="stop-color:#2846b3;stop-opacity:1"/><stop style="stop-color:#555f9e;stop-opacity:1" id="stop4843" offset=".5"/><stop id="stop4845" offset="1" style="stop-color:#567ebc;stop-opacity:0"/></linearGradient><linearGradient id="linearGradient4838"><stop id="stop4840" offset="0" style="stop-color:#9e6627;stop-opacity:1"/><stop id="stop4842" offset="1" style="stop-color:#cf9852;stop-opacity:1"/></linearGradient><linearGradient id="linearGradient4762"><stop style="stop-color:#ffd175;stop-opacity:1" id="stop4764" offset="0"/><stop style="stop-color:#fff1c2;stop-opacity:1" id="stop4766" offset="1"/></linearGradient><linearGradient id="linearGradient4756"><stop style="stop-color:#92b5eb;stop-opacity:1" id="stop4758" offset="0"/><stop style="stop-color:#b1e1fd;stop-opacity:1" id="stop4760" offset="1"/></linearGradient><linearGradient id="linearGradient4807"><stop id="stop4809" offset="0" style="stop-color:#2846b3;stop-opacity:1"/><stop id="stop4811" offset="1" style="stop-color:#60649d;stop-opacity:1"/></linearGradient><linearGradient id="linearGradient3967"><stop id="stop3969" offset="0" style="stop-color:#d1ad79;stop-opacity:1"/><stop id="stop3971" offset="1" style="stop-color:#ce9650;stop-opacity:1"/></linearGradient><linearGradient id="linearGradient3955"><stop id="stop3957" offset="0" style="stop-color:#c38536;stop-opacity:0"/><stop style="stop-color:#f2dc91;stop-opacity:1" id="stop3959" offset=".154"/><stop style="stop-color:#fbdc8b;stop-opacity:1" id="stop3961" offset=".5"/><stop id="stop3963" offset=".75" style="stop-color:#e6bd7a;stop-opacity:1"/><stop id="stop3965" offset="1" style="stop-color:#ba772f;stop-opacity:0"/></linearGradient><linearGradient id="linearGradient3939" x1="531.093" x2="531.093" y1="366.789" y2="371.179" gradientTransform="translate(-61.177316,-1.5825443)" gradientUnits="userSpaceOnUse" xlink:href="#linearGradient3967"/><linearGradient id="linearGradient4776" x1="537.943" x2="537.902" y1="397.561" y2="385.152" gradientTransform="matrix(1,0,0,1.4165687,344.32442,-1.0061521e-6)" gradientUnits="userSpaceOnUse" xlink:href="#linearGradient4756"/><linearGradient id="linearGradient4778" x1="546.633" x2="546.583" y1="397.264" y2="382.124" gradientTransform="matrix(1,0,0,1.4165687,344.32442,-1.0061521e-6)" gradientUnits="userSpaceOnUse" xlink:href="#linearGradient4807"/><mask id="mask4917" maskUnits="userSpaceOnUse"><path style="fill:#fff;fill-opacity:1;stroke:#fff;stroke-width:2;stroke-linecap:round;stroke-linejoin:round;stroke-miterlimit:4;stroke-opacity:1;stroke-dashoffset:0;display:inline" id="path4919" d="m 462.77563,373.22885 29.11636,0 c 1.45425,0 2.625,1.17075 2.625,2.625 l 0,18.76896 c 0,1.45425 -1.17412,2.52598 -2.625,2.625 l -29.11636,1.98708 c -1.45088,0.099 -2.625,-1.17075 -2.625,-2.625 l 0,-20.75604 c 0,-1.45425 1.17075,-2.625 2.625,-2.625 z"/></mask><filter id="filter4929" width="1.275" height="1.755" x="-.138" y="-.377"><feGaussianBlur id="feGaussianBlur4931" stdDeviation="3.562"/></filter><linearGradient id="linearGradient4933" x1="538.006" x2="538.006" y1="396.223" y2="374.212" gradientTransform="translate(-60.558602,0)" gradientUnits="userSpaceOnUse" xlink:href="#linearGradient4762"/><linearGradient id="linearGradient4935" x1="548.459" x2="548.459" y1="398.988" y2="373.771" gradientTransform="translate(-60.558602,0)" gradientUnits="userSpaceOnUse" xlink:href="#linearGradient4838"/><linearGradient id="linearGradient4795-2" x1="548.459" x2="548.459" y1="398.988" y2="373.771" gradientTransform="translate(-60.558608,-7.9270608e-7)" gradientUnits="userSpaceOnUse" xlink:href="#linearGradient4839"/><linearGradient id="linearGradient4867" x1="523.008" x2="543.914" y1="373.229" y2="373.229" gradientTransform="translate(-60.558598,-1.7032105)" gradientUnits="userSpaceOnUse" xlink:href="#linearGradient3955"/></defs><metadata id="metadata7"/><g id="layer1" style="display:inline" transform="translate(0,-1036.3622)"><g transform="matrix(0.27903303,0,0,0.27903303,-129.51159,939.94639)" style="display:inline" id="g13862"><g id="g4204"><g id="g13813" transform="matrix(1.1835826,0,0,1.1835826,-75.612218,-74.709882)"><rect id="rect13693-3" width="15" height="16.625" x="463.933" y="365.467" rx="2.625" ry="2.625" style="fill:#fdf7eb;fill-opacity:1;stroke:url(#linearGradient3939);stroke-width:3.02792978;stroke-linecap:round;stroke-linejoin:round;stroke-miterlimit:4;stroke-opacity:1;stroke-dasharray:none;stroke-dashoffset:0;display:inline"/><path id="rect13693" d="m 463.24874,371.54269 31.10344,0 c 1.45425,0 2.625,1.17075 2.625,2.625 l 0,14.39926 c 0,1.45425 -1.21199,2.28111 -2.625,2.625 l -31.10344,7.56983 c -1.413,0.34389 -2.625,-1.17075 -2.625,-2.625 l 0,-21.96909 c 0,-1.45425 1.17075,-2.625 2.625,-2.625 z" style="fill:url(#linearGradient4933);fill-opacity:1;stroke:url(#linearGradient4935);stroke-width:3.02792978;stroke-linecap:round;stroke-linejoin:round;stroke-miterlimit:4;stroke-opacity:1;stroke-dasharray:none;stroke-dashoffset:0"/><path id="rect13693-4" d="m 463.24874,371.6096 31.10344,0 c 1.45425,0 2.625,1.17075 2.625,2.625 l 0,14.33235 c 0,1.45425 -1.21199,2.28111 -2.625,2.625 l -31.10344,7.56983 c -1.413,0.34389 -2.625,-1.17075 -2.625,-2.625 l 0,-21.90218 c 0,-1.45425 1.17075,-2.625 2.625,-2.625 z" style="fill:none;stroke:url(#linearGradient4795-2);stroke-width:3.02792978;stroke-linecap:round;stroke-linejoin:round;stroke-miterlimit:4;stroke-opacity:1;stroke-dasharray:none;stroke-dashoffset:0;display:inline"/><path id="path13797" d="m 462.26171,371.52622 20.09375,0" style="fill:none;stroke:url(#linearGradient4867);stroke-width:3.02792978;stroke-linecap:butt;stroke-linejoin:miter;stroke-miterlimit:4;stroke-opacity:1;stroke-dasharray:none"/><g id="g4914" mask="url(#mask4917)"><rect style="opacity:.5;fill:#000;fill-opacity:1;stroke:#000;stroke-width:2.38039374;stroke-linecap:round;stroke-linejoin:round;stroke-miterlimit:4;stroke-opacity:1;stroke-dasharray:none;stroke-dashoffset:0;display:inline;filter:url(#filter4929)" id="rect13693-2-2" width="30.9" height="22.649" x="860.685" y="542.897" rx="2.625" ry="3.718" transform="matrix(1,0,-0.70828043,0.70593118,0,0)"/></g><rect id="rect13693-2" width="30.237" height="21.543" x="860.685" y="543.433" rx="2.625" ry="3.718" transform="matrix(1,0,-0.70828042,0.70593119,0,0)" style="fill:url(#linearGradient4776);fill-opacity:1;stroke:url(#linearGradient4778);stroke-width:3.60383272;stroke-linecap:round;stroke-linejoin:round;stroke-miterlimit:4;stroke-opacity:1;stroke-dasharray:none;stroke-dashoffset:0;display:inline"/></g></g></g></g></svg>