<svg xmlns="http://www.w3.org/2000/svg" xmlns:svg="http://www.w3.org/2000/svg" xmlns:xlink="http://www.w3.org/1999/xlink" id="svg2" width="16" height="16" version="1.1"><defs id="defs4"><linearGradient id="linearGradient4046-24" x1="8.014" x2="8.014" y1="1042.362" y2="1050.071" gradientTransform="translate(0,2.000063)" gradientUnits="userSpaceOnUse" xlink:href="#linearGradient4810-5"/><linearGradient id="linearGradient4810-5"><stop style="stop-color:#be9a4b;stop-opacity:1" id="stop4812-0" offset="0"/><stop style="stop-color:#7f7542;stop-opacity:1" id="stop4814-4" offset="1"/></linearGradient><linearGradient id="linearGradient5062-4" x1="-13" x2="-15" y1="1047.362" y2="1047.362" gradientTransform="translate(18,-4.000037)" gradientUnits="userSpaceOnUse" xlink:href="#linearGradient4910-4-0"/><linearGradient id="linearGradient4910-4-0"><stop id="stop4912-8-5" offset="0" style="stop-color:#fff;stop-opacity:0"/><stop id="stop4914-8-1" offset="1" style="stop-color:#c5dff4;stop-opacity:1"/></linearGradient><linearGradient id="linearGradient4975-2-1" x1="-11" x2="-11" y1="1042.362" y2="1044.362" gradientTransform="translate(18,1.999963)" gradientUnits="userSpaceOnUse" xlink:href="#linearGradient4994-4-5"/><linearGradient id="linearGradient4994-4-5"><stop style="stop-color:#c5dff4;stop-opacity:1" id="stop4996-5-9" offset="0"/><stop style="stop-color:#fff;stop-opacity:0" id="stop4998-5-0" offset="1"/></linearGradient><linearGradient id="linearGradient4063-8" x1="8.014" x2="8.014" y1="1039.876" y2="1041.877" gradientTransform="translate(0,2.0001)" gradientUnits="userSpaceOnUse" xlink:href="#linearGradient4082-3"/><linearGradient id="linearGradient4082-3"><stop id="stop4084-8" offset="0" style="stop-color:#4476aa;stop-opacity:1"/><stop style="stop-color:#5a9ccc;stop-opacity:1" id="stop4864-7" offset=".5"/><stop id="stop4086-2" offset="1" style="stop-color:#4476aa;stop-opacity:1"/></linearGradient></defs><metadata id="metadata7"/><g id="layer1" style="display:inline" transform="translate(0,-1036.3622)"><g id="g4908" transform="translate(17.6875,0)"><g transform="translate(-18.599558,-2.010247)" style="display:inline" id="layer1-8"><path id="rect3997-9" d="m 2.500702,1041.8621 12.927706,0 0,11.033 -12.927706,0 z" style="fill:#f4fcff;fill-opacity:1;stroke:url(#linearGradient4046-24);stroke-width:1;stroke-linecap:butt;stroke-linejoin:miter;stroke-miterlimit:4;stroke-opacity:1;stroke-dashoffset:0;display:inline"/><path id="rect4853-82-7" d="m 4,1045.3622 0,7.0312 -1,0 0,-8.0312 z" style="fill:url(#linearGradient5062-4);fill-opacity:1;stroke:none;display:inline"/><path id="rect4853-82-0" d="m 4,1045.3622 10.928078,0 0,-1 -11.928078,0 z" style="fill:url(#linearGradient4975-2-1);fill-opacity:1;stroke:none;display:inline"/><path id="rect3997-9-9" d="m 2.500702,1041.8621 12.883511,0 0,2.0053 -12.883511,0 z" style="fill:#58b6e8;fill-opacity:1;stroke:url(#linearGradient4063-8);stroke-width:1;stroke-linecap:butt;stroke-linejoin:miter;stroke-miterlimit:4;stroke-opacity:1;stroke-dashoffset:0;display:inline"/><path style="fill:#366c9a;fill-opacity:1;display:inline" id="path10927-5-7" d="m 6.7981715,1051.4063 c -0.1469267,-0.014 -0.3195112,-0.047 -0.4580941,-0.088 -0.2150499,-0.063 -0.1936229,0.012 -0.1936229,-0.6823 0,-0.3636 0.00611,-0.6033 0.015492,-0.6071 0.00851,0 0.025173,0 0.037043,0.01 0.038489,0.029 0.233902,0.1289 0.2986015,0.1529 0.1480701,0.055 0.370244,0.082 0.5267475,0.066 0.3469363,-0.037 0.5820383,-0.2338 0.7002875,-0.5867 0.095358,-0.2845 0.09056,-0.1742 0.1003725,-2.3095 l 0.00903,-1.9642 0.6585554,0 0.6585575,0 0.00489,1.8311 c 0.00506,1.8929 -4.364e-4,2.1144 -0.061693,2.4593 -0.1240794,0.6994 -0.4752182,1.2256 -0.9957993,1.4924 -0.3499497,0.1793 -0.8580195,0.2676 -1.3003511,0.2258 z"/></g></g></g></svg>